{
  "accessors": [
    {
      "bufferView": 2,
      "componentType": 5126,
      "count": 4,
      "max": [
        1.0,
        0.0,
        1.0
      ],
      "min": [
        -1.0,
        0.0,
        -1.0
      ],
      "type": "VEC3"
    },
    {
      "bufferView": 2,
      "byteOffset": 48,
      "componentType": 5126,
      "count": 4,
      "max": [
        0.0,
        1.0,
        -0.0
      ],
      "min": [
        0.0,
        1.0,
        -0.0
      ],
      "type": "VEC3"
    },
    {
      "bufferView": 1,
      "componentType": 5126,
      "count": 4,
      "max": [
        1.0,
        1.0
      ],
      "min": [
        0.0,
        0.0
      ],
      "type": "VEC2"
    },
    {
      "bufferView": 0,
      "componentType": 5125,
      "count": 6,
      "type": "SCALAR"
    },
    {
      "bufferView": 2,
      "byteOffset": 96,
      "componentType": 5126,
      "count": 185,
      "max": [
        0.012979431077837944,
        0.000627974746748805,
        0.012940063141286373
      ],
      "min": [
        -0.013096923939883709,
        -0.007462373003363609,
        -0.013135986402630806
      ],
      "type": "VEC3"
    },
    {
      "bufferView": 2,
      "byteOffset": 2316,
      "componentType": 5126,
      "count": 185,
      "max": [
        0.9975918531417847,
        1.0,
        0.9976009726524353
      ],
      "min": [
        -0.9976013898849487,
        -1.0,
        -0.9976226687431335
      ],
      "type": "VEC3"
    },
    {
      "bufferView": 1,
      "byteOffset": 32,
      "componentType": 5126,
      "count": 185,
      "max": [
        0.65625,
        0.48211342096328735
      ],
      "min": [
        0.0,
        -7.450580596923828e-08
      ],
      "type": "VEC2"
    },
    {
      "bufferView": 0,
      "byteOffset": 24,
      "componentType": 5125,
      "count": 420,
      "type": "SCALAR"
    },
    {
      "bufferView": 2,
      "byteOffset": 4536,
      "componentType": 5126,
      "count": 20,
      "max": [
        0.010891417972743511,
        0.00012415635865181684,
        0.010852050967514515
      ],
      "min": [
        -0.011008910834789276,
        0.00012415635865181684,
        -0.011047973297536373
      ],
      "type": "VEC3"
    },
    {
      "bufferView": 2,
      "byteOffset": 4776,
      "componentType": 5126,
      "count": 20,
      "max": [
        -1.534281590664932e-10,
        -1.0,
        -0.0
      ],
      "min": [
        -1.534281590664932e-10,
        -1.0,
        -0.0
      ],
      "type": "VEC3"
    },
    {
      "bufferView": 1,
      "byteOffset": 1512,
      "componentType": 5126,
      "count": 20,
      "max": [
        0.0,
        0.0
      ],
      "min": [
        0.0,
        0.0
      ],
      "type": "VEC2"
    },
    {
      "bufferView": 0,
      "byteOffset": 1704,
      "componentType": 5125,
      "count": 54,
      "type": "SCALAR"
    },
    {
      "bufferView": 2,
      "byteOffset": 5016,
      "componentType": 5126,
      "count": 145,
      "max": [
        0.0030444334261119366,
        0.24816277623176575,
        0.003024415811523795
      ],
      "min": [
        -0.0031980513595044613,
        -0.006219339091330767,
        -0.0032204771414399147
      ],
      "type": "VEC3"
    },
    {
      "bufferView": 2,
      "byteOffset": 6756,
      "componentType": 5126,
      "count": 145,
      "max": [
        1.0,
        1.0,
        1.0
      ],
      "min": [
        -0.9999999403953552,
        -1.0,
        -1.0
      ],
      "type": "VEC3"
    },
    {
      "bufferView": 1,
      "byteOffset": 1672,
      "componentType": 5126,
      "count": 145,
      "max": [
        1.0000159740447998,
        1.7953662872314453
      ],
      "min": [
        1.5914440155029297e-05,
        -0.7953662872314453
      ],
      "type": "VEC2"
    },
    {
      "bufferView": 0,
      "byteOffset": 1920,
      "componentType": 5125,
      "count": 480,
      "type": "SCALAR"
    },
    {
      "bufferView": 2,
      "byteOffset": 8496,
      "componentType": 5126,
      "count": 289,
      "max": [
        0.1143963560461998,
        0.24473021924495697,
        0.007027587853372097
      ],
      "min": [
        0.00318145751953125,
        0.10670532286167145,
        -0.024259643629193306
      ],
      "type": "VEC3"
    },
    {
      "bufferView": 2,
      "byteOffset": 11964,
      "componentType": 5126,
      "count": 289,
      "max": [
        0.9998746514320374,
        0.5397305488586426,
        0.9999988675117493
      ],
      "min": [
        -0.9962449073791504,
        -0.37145939469337463,
        -0.19802311062812805
      ],
      "type": "VEC3"
    },
    {
      "bufferView": 1,
      "byteOffset": 2832,
      "componentType": 5126,
      "count": 289,
      "max": [
        0.8537712097167969,
        0.7990550994873047
      ],
      "min": [
        0.14623069763183594,
        0.25103759765625
      ],
      "type": "VEC2"
    },
    {
      "bufferView": 0,
      "byteOffset": 3840,
      "componentType": 5125,
      "count": 1536,
      "type": "SCALAR"
    }
  ],
  "asset": {
    "extras": {
      "author": "MarkoJantti (https://sketchfab.com/MarkoJantti)",
      "license": "CC-BY-4.0 (http://creativecommons.org/licenses/by/4.0/)",
      "source": "https://sketchfab.com/3d-models/free-golf-pin-c07829cf1f9f4274ac584179bab8a031",
      "title": "Free Golf Pin"
    },
    "generator": "Sketchfab-13.74.0",
    "version": "2.0"
  },
  "bufferViews": [
    {
      "buffer": 0,
      "byteLength": 9984,
      "name": "floatBufferViews",
      "target": 34963
    },
    {
      "buffer": 0,
      "byteLength": 5144,
      "byteOffset": 9984,
      "byteStride": 8,
      "name": "floatBufferViews",
      "target": 34962
    },
    {
      "buffer": 0,
      "byteLength": 15432,
      "byteOffset": 15128,
      "byteStride": 12,
      "name": "floatBufferViews",
      "target": 34962
    }
  ],
  "buffers": [
    {
      "byteLength": 30560,
      "uri": "scene.bin"
    }
  ],
  "materials": [
    {
      "doubleSided": true,
      "name": "material_0",
      "pbrMetallicRoughness": {
        "baseColorFactor": [
          0.06520789964551478,
          0.38002373574234294,
          0.06325735543815489,
          1.0
        ],
        "metallicFactor": 0.0,
        "roughnessFactor": 0.9737148164131304
      }
    },
    {
      "doubleSided": true,
      "name": "Material.001",
      "pbrMetallicRoughness": {
        "baseColorFactor": [
          0.054095,
          0.054095,
          0.054095,
          1.0
        ],
        "metallicFactor": 0.8274420298555994,
        "roughnessFactor": 0.23625618418557864
      }
    },
    {
      "doubleSided": true,
      "name": "Material.002",
      "pbrMetallicRoughness": {
        "baseColorFactor": [
          0.0,
          0.0,
          0.0,
          1.0
        ],
        "metallicFactor": 0.0
      }
    },
    {
      "doubleSided": true,
      "name": "Material",
      "pbrMetallicRoughness": {
        "baseColorFactor": [
          0.0,
          0.0,
          0.0,
          1.0
        ],
        "metallicFactor": 0.8822943248146735,
        "roughnessFactor": 0.05950990042856212
      }
    },
    {
      "doubleSided": true,
      "name": "lambert2",
      "pbrMetallicRoughness": {
        "baseColorFactor": [
          0.5,
          0.00276124,
          0.0,
          1.0
        ],
        "metallicFactor": 0.0,
        "roughnessFactor": 0.851271
      }
    }
  ],
  "meshes": [
    {
      "name": "Object_0",
      "primitives": [
        {
          "attributes": {
            "NORMAL": 1,
            "POSITION": 0,
            "TEXCOORD_0": 2
          },
          "indices": 3,
          "material": 0,
          "mode": 4
        }
      ]
    },
    {
      "name": "Object_1",
      "primitives": [
        {
          "attributes": {
            "NORMAL": 5,
            "POSITION": 4,
            "TEXCOORD_0": 6
          },
          "indices": 7,
          "material": 1,
          "mode": 4
        }
      ]
    },
    {
      "name": "Object_2",
      "primitives": [
        {
          "attributes": {
            "NORMAL": 9,
            "POSITION": 8,
            "TEXCOORD_0": 10
          },
          "indices": 11,
          "material": 2,
          "mode": 4
        }
      ]
    },
    {
      "name": "Object_3",
      "primitives": [
        {
          "attributes": {
            "NORMAL": 13,
            "POSITION": 12,
            "TEXCOORD_0": 14
          },
          "indices": 15,
          "material": 3,
          "mode": 4
        }
      ]
    },
    {
      "name": "Object_4",
      "primitives": [
        {
          "attributes": {
            "NORMAL": 17,
            "POSITION": 16,
            "TEXCOORD_0": 18
          },
          "indices": 19,
          "material": 4,
          "mode": 4
        }
      ]
    }
  ],
  "nodes": [
    {
      "children": [
        1
      ],
      "matrix": [
        1.0,
        0.0,
        0.0,
        0.0,
        0.0,
        2.220446049250313e-16,
        -1.0,
        0.0,
        0.0,
        1.0,
        2.220446049250313e-16,
        0.0,
        0.0,
        0.0,
        0.0,
        1.0
      ],
      "name": "Sketchfab_model"
    },
    {
      "children": [
        2
      ],
      "name": "root"
    },
    {
      "children": [
        3,
        5
      ],
      "matrix": [
        1.0,
        0.0,
        0.0,
        0.0,
        0.0,
        2.220446049250313e-16,
        1.0,
        0.0,
        0.0,
        -1.0,
        2.220446049250313e-16,
        0.0,
        0.0,
        0.0,
        0.0,
        1.0
      ],
      "name": "GLTF_SceneRootNode"
    },
    {
      "children": [
        4
      ],
      "matrix": [
        69.0655288696289,
        0.0,
        0.0,
        0.0,
        0.0,
        69.0655288696289,
        0.0,
        0.0,
        0.0,
        0.0,
        69.0655288696289,
        0.0,
        0.0,
        0.0,
        0.0,
        1.0
      ],
      "name": "Plane.001_0"
    },
    {
      "mesh": 0,
      "name": "Object_4"
    },
    {
      "children": [
        6,
        9,
        11
      ],
      "matrix": [
        14.280597686767578,
        0.0,
        0.0,
        0.0,
        0.0,
        14.280597686767578,
        0.0,
        0.0,
        0.0,
        0.0,
        14.280597686767578,
        0.0,
        0.0,
        0.0,
        0.0,
        1.0
      ],
      "name": "Flag_6"
    },
    {
      "children": [
        7,
        8
      ],
      "matrix": [
        1.3426930904388428,
        0.0,
        0.0,
        0.0,
        0.0,
        2.060945987701416,
        0.0,
        0.0,
        0.0,
        0.0,
        1.3427088260650635,
        0.0,
        0.0,
        0.0,
        0.0,
        1.0
      ],
      "name": "pCylinder29.001_3"
    },
    {
      "mesh": 1,
      "name": "Object_7"
    },
    {
      "mesh": 2,
      "name": "Object_8"
    },
    {
      "children": [
        10
      ],
      "matrix": [
        0.6000000238418579,
        0.0,
        0.0,
        0.0,
        0.0,
        0.6000000238418579,
        0.0,
        0.0,
        0.0,
        0.0,
        0.6000000238418579,
        0.0,
        0.0,
        0.0,
        0.0,
        1.0
      ],
      "name": "pCylinder30_4"
    },
    {
      "mesh": 3,
      "name": "Object_10"
    },
    {
      "children": [
        12
      ],
      "matrix": [
        0.39358747005462646,
        0.0,
        0.0,
        0.0,
        0.0,
        0.39358747005462646,
        0.0,
        0.0,
        0.0,
        0.0,
        0.39358747005462646,
        0.0,
        0.0,
        0.05214673653244972,
        0.0,
        1.0
      ],
      "name": "pPlane2_5"
    },
    {
      "mesh": 4,
      "name": "Object_12"
    }
  ],
  "scene": 0,
  "scenes": [
    {
      "name": "Sketchfab_Scene",
      "nodes": [
        0
      ]
    }
  ]
}
